<svg width="123" height="27" viewBox="0 0 123 27" fill="none" xmlns="http://www.w3.org/2000/svg">
<path d="M49.1331 15.4331L47.0015 9.85445C46.9146 9.62625 46.5822 9.62625 46.495 9.85445L44.3638 15.4333C44.3487 15.473 44.3437 15.5157 44.3492 15.5576C44.3547 15.5996 44.3705 15.6395 44.3954 15.6742C44.4203 15.709 44.4535 15.7374 44.4921 15.757C44.5307 15.7765 44.5736 15.7867 44.6172 15.7866H48.8797C48.9233 15.7866 48.9662 15.7765 49.0048 15.7569C49.0434 15.7373 49.0766 15.7089 49.1014 15.6742C49.1263 15.6395 49.1422 15.5994 49.1476 15.5575C49.1531 15.5155 49.1483 15.4727 49.1331 15.4331ZM50.1177 18.5687H43.3794C43.3242 18.5687 43.2704 18.5851 43.2252 18.6157C43.1799 18.6462 43.1454 18.6895 43.1262 18.7397L41.7996 22.2108C41.7804 22.261 41.7458 22.3043 41.7006 22.3349C41.6553 22.3654 41.6015 22.3818 41.5464 22.3818H38.6258C38.5816 22.3818 38.5381 22.3713 38.4991 22.3512C38.4601 22.3311 38.4268 22.302 38.4021 22.2665C38.3773 22.231 38.362 22.1901 38.3573 22.1474C38.3525 22.1048 38.3587 22.0618 38.3751 22.0219L45.0992 5.75855C45.1194 5.70995 45.154 5.66835 45.1987 5.63905C45.2434 5.60975 45.2962 5.59415 45.3501 5.59425H48.1466C48.2568 5.59425 48.3561 5.65925 48.3973 5.75855L55.1213 22.0217C55.1378 22.0616 55.144 22.1047 55.1393 22.1474C55.1346 22.1901 55.1192 22.2309 55.0945 22.2666C55.0698 22.302 55.0364 22.3313 54.9974 22.3514C54.9583 22.3715 54.9148 22.382 54.8706 22.382H51.9505C51.8954 22.382 51.8415 22.3655 51.7963 22.3349C51.751 22.3043 51.7165 22.2611 51.6973 22.2108L50.3706 18.7397C50.3514 18.6895 50.3168 18.6462 50.2716 18.6157C50.2263 18.5851 50.1728 18.5687 50.1177 18.5687ZM56.4897 11.3019H58.9876C59.0593 11.3019 59.128 11.3295 59.1786 11.3787C59.2293 11.4279 59.2578 11.4945 59.2578 11.5641V22.1196C59.2578 22.1891 59.2293 22.2558 59.1786 22.305C59.128 22.3542 59.0593 22.3818 58.9876 22.3818H56.4897C56.418 22.3818 56.3493 22.3542 56.2987 22.305C56.248 22.2558 56.2195 22.1891 56.2195 22.1196V11.5639C56.2195 11.4943 56.248 11.4277 56.2987 11.3785C56.3493 11.3294 56.418 11.3019 56.4897 11.3019ZM68.3681 13.8694C68.3681 13.939 68.3396 14.0058 68.2889 14.055C68.2383 14.1041 68.1696 14.1318 68.0979 14.1318H68.0223C66.7872 14.1318 65.8812 14.4195 65.305 14.9951C64.7284 15.5706 64.4406 16.5221 64.4406 17.8491V22.1196C64.4406 22.1891 64.4122 22.2558 64.3615 22.305C64.3109 22.3542 64.2422 22.3818 64.1705 22.3818H61.697C61.6254 22.3818 61.5567 22.3542 61.506 22.305C61.4554 22.2558 61.4269 22.1891 61.4269 22.1196V11.5639C61.4269 11.4943 61.4554 11.4277 61.506 11.3785C61.5567 11.3294 61.6254 11.3017 61.697 11.3017H64.1457C64.2173 11.3017 64.286 11.3294 64.3367 11.3785C64.3873 11.4277 64.4158 11.4943 64.4158 11.5639V13.6518H64.4653C64.7617 12.7885 65.231 12.1253 65.8735 11.6614C66.5155 11.1979 67.306 10.9659 68.2445 10.9659H68.3681V13.8694ZM75.1983 13.7719C75.1266 13.7719 75.0579 13.7996 75.0073 13.8488C74.9566 13.8979 74.9282 13.9647 74.9282 14.0342V18.4246C74.9282 18.8724 75.0182 19.1922 75.1997 19.3839C75.3807 19.5757 75.6937 19.6716 76.1383 19.6716H76.3869C76.4586 19.6716 76.5273 19.6994 76.5779 19.7485C76.6286 19.7977 76.6571 19.8644 76.6571 19.934V22.1434C76.6571 22.2129 76.6286 22.2796 76.5779 22.3288C76.5273 22.378 76.4586 22.4056 76.3869 22.4056H75.3231C74.2197 22.4056 73.3718 22.1299 72.779 21.5783C72.186 21.0267 71.8896 20.2076 71.8896 19.1201V14.0342C71.8896 13.9647 71.8611 13.8979 71.8105 13.8488C71.7598 13.7996 71.6911 13.7719 71.6195 13.7719H70.0602C69.9886 13.7719 69.9199 13.7443 69.8692 13.6951C69.8186 13.646 69.7901 13.5793 69.7901 13.5097V11.5639C69.7901 11.4943 69.8186 11.4277 69.8692 11.3785C69.9199 11.3294 69.9886 11.3017 70.0602 11.3017H71.6197C71.6913 11.3017 71.76 11.274 71.8107 11.2248C71.8613 11.1756 71.8898 11.1089 71.8898 11.0394V7.12715C71.8898 7.05765 71.9182 6.99095 71.9689 6.94175C72.0195 6.89255 72.0882 6.86495 72.1599 6.86495H74.6579C74.7295 6.86495 74.7982 6.89255 74.8489 6.94175C74.8995 6.99095 74.928 7.05765 74.928 7.12715V11.0394C74.928 11.1089 74.9564 11.1756 75.0071 11.2248C75.0578 11.274 75.1265 11.3017 75.1981 11.3017H77.0044C77.0761 11.3017 77.1448 11.3294 77.1954 11.3785C77.2461 11.4277 77.2745 11.4943 77.2745 11.5639V13.5098C77.2745 13.5793 77.2461 13.646 77.1954 13.6952C77.1448 13.7444 77.0761 13.7721 77.0044 13.7721L75.1983 13.7719ZM86.6368 19.0962C87.2049 18.5206 87.4889 17.7691 87.4889 16.8417C87.4889 15.9146 87.2049 15.1629 86.6368 14.5874C86.0686 14.0118 85.3233 13.7241 84.4011 13.7241C83.4788 13.7241 82.734 14.0118 82.1657 14.5874C81.5977 15.1629 81.3136 15.9146 81.3136 16.8417C81.3136 17.7691 81.5977 18.5206 82.1657 19.0962C82.734 19.6717 83.4788 19.9594 84.4011 19.9594C85.3233 19.9594 86.0686 19.6717 86.6368 19.0962ZM80.869 22.0459C80.0291 21.5824 79.3661 20.9068 78.8806 20.0195C78.3946 19.1322 78.1518 18.073 78.1518 16.8417C78.1518 15.6109 78.3946 14.5514 78.8806 13.6641C79.3661 12.7768 80.0291 12.1016 80.869 11.6376C81.7089 11.1739 82.6308 10.942 83.6355 10.942C84.5247 10.942 85.2862 11.1099 85.9206 11.4456C86.5541 11.7813 87.0605 12.2532 87.4395 12.8607H87.4889V11.5639C87.4889 11.4943 87.5173 11.4277 87.568 11.3785C87.6186 11.3294 87.6873 11.3017 87.759 11.3017H90.2323C90.3039 11.3017 90.3726 11.3294 90.4233 11.3785C90.4739 11.4277 90.5024 11.4943 90.5024 11.5639V22.1194C90.5024 22.1889 90.4739 22.2556 90.4233 22.3048C90.3726 22.354 90.3039 22.3817 90.2323 22.3817H87.759C87.6873 22.3817 87.6186 22.354 87.568 22.3048C87.5173 22.2556 87.4889 22.1889 87.4889 22.1194V20.8228H87.4395C87.0605 21.4306 86.5541 21.9021 85.9204 22.2378C85.2862 22.5734 84.5248 22.7413 83.6355 22.7413C82.6308 22.7413 81.7089 22.5094 80.869 22.0459ZM100.789 19.0962C101.357 18.5206 101.641 17.7691 101.641 16.8417C101.641 15.9146 101.357 15.1629 100.789 14.5874C100.221 14.0118 99.4755 13.7241 98.5533 13.7241C97.631 13.7241 96.886 14.0118 96.3179 14.5874C95.75 15.1629 95.4656 15.9146 95.4656 16.8417C95.4656 17.7691 95.75 18.5206 96.3179 19.0962C96.886 19.6717 97.631 19.9594 98.5533 19.9594C99.4755 19.9594 100.221 19.6717 100.789 19.0962ZM97.0342 22.2378C96.4002 21.9021 95.8936 21.4306 95.5151 20.8228H95.4656V22.1194C95.4656 22.1889 95.4371 22.2556 95.3865 22.3048C95.3358 22.354 95.2671 22.3817 95.1955 22.3817H92.6975C92.6259 22.3817 92.5572 22.354 92.5065 22.3048C92.4559 22.2556 92.4274 22.1889 92.4274 22.1194V5.85595C92.4274 5.78635 92.4559 5.71965 92.5065 5.67055C92.5572 5.62135 92.6259 5.59375 92.6975 5.59375H95.1955C95.2671 5.59375 95.3358 5.62135 95.3865 5.67055C95.4371 5.71965 95.4656 5.78635 95.4656 5.85595V12.8605H95.5151C95.8936 12.253 96.4002 11.7813 97.0342 11.4456C97.6681 11.1098 98.4298 10.9419 99.3192 10.9419C100.323 10.9419 101.246 11.1737 102.086 11.6374C102.926 12.1013 103.588 12.7766 104.074 13.6637C104.56 14.5515 104.803 15.611 104.803 16.8419C104.803 18.0732 104.56 19.1322 104.074 20.0196C103.588 20.9069 102.926 21.5827 102.086 22.0459C101.246 22.5096 100.324 22.7416 99.3194 22.7416C98.43 22.7416 97.6681 22.5737 97.0342 22.2378ZM109.012 22.3818H106.514C106.442 22.3818 106.373 22.3542 106.323 22.305C106.272 22.2558 106.244 22.1891 106.244 22.1196V5.85645C106.244 5.78695 106.272 5.72025 106.323 5.67105C106.373 5.62185 106.442 5.59425 106.514 5.59425H109.012C109.083 5.59425 109.152 5.62185 109.203 5.67105C109.253 5.72025 109.282 5.78695 109.282 5.85645V22.1196C109.282 22.1891 109.253 22.2558 109.203 22.305C109.152 22.3542 109.083 22.3818 109.012 22.3818ZM114.904 13.868C114.49 14.1817 114.21 14.6346 114.065 15.2269C114.026 15.3902 114.157 15.5469 114.33 15.5469H119.084C119.249 15.5469 119.378 15.4035 119.352 15.2455C119.257 14.6851 119.009 14.2384 118.609 13.9041C118.14 13.5125 117.526 13.3167 116.769 13.3167C116.011 13.3167 115.39 13.5003 114.904 13.868ZM120.993 12.489C121.964 13.5205 122.45 14.9795 122.45 16.8658V17.1791C122.45 17.2487 122.422 17.3153 122.371 17.3645C122.32 17.4136 122.252 17.4414 122.18 17.4414H114.238C114.199 17.4414 114.16 17.4499 114.124 17.4662C114.088 17.4824 114.056 17.5061 114.031 17.5354C114.005 17.5648 113.987 17.5993 113.976 17.6364C113.966 17.6735 113.964 17.7122 113.971 17.75C114.098 18.4508 114.417 19.0075 114.929 19.42C115.513 19.892 116.25 20.1275 117.14 20.1275C118.287 20.1275 119.35 19.6924 120.327 18.8223C120.447 18.716 120.636 18.7386 120.728 18.8678L121.943 20.5602C121.981 20.6129 121.998 20.6773 121.99 20.7411C121.982 20.805 121.951 20.8639 121.901 20.9067C121.305 21.4134 120.643 21.8407 119.931 22.1779C119.14 22.5534 118.21 22.7416 117.14 22.7416C115.905 22.7416 114.826 22.4975 113.904 22.01C112.981 21.5226 112.265 20.8351 111.755 19.9475C111.244 19.0602 110.989 18.0332 110.989 16.8658C110.989 15.699 111.236 14.6678 111.73 13.7721C112.224 12.877 112.916 12.1814 113.805 11.6856C114.694 11.1904 115.732 10.9423 116.917 10.9423C118.662 10.9423 120.021 11.458 120.993 12.489ZM59.584 7.39955C59.584 8.38875 58.758 9.19075 57.739 9.19075C56.7198 9.19075 55.8938 8.38875 55.8938 7.39935C55.8938 6.40995 56.72 5.60805 57.739 5.60805C58.758 5.60805 59.584 6.41015 59.584 7.39955Z" fill="white"/>
<path d="M14.2259 0.863792L2.34816 5.6355C1.68764 5.9009 1.69449 6.812 2.35914 7.0678L14.2864 11.66C15.3343 12.0635 16.5014 12.0635 17.5493 11.66L29.4767 7.0676C30.1412 6.812 30.1484 5.9011 29.4875 5.6357L17.6102 0.863622C16.5266 0.428272 15.3095 0.428442 14.2259 0.863792Z" fill="#FCB400"/>
<path d="M16.9758 14.1665V25.6386C16.9758 26.1841 17.5425 26.5579 18.0649 26.3568L31.3555 21.3482C31.5037 21.2911 31.6309 21.1921 31.7205 21.0641C31.8101 20.936 31.8579 20.7848 31.8579 20.63V9.15806C31.8579 8.61236 31.2912 8.23876 30.7688 8.43976L17.4782 13.4485C17.33 13.5056 17.2029 13.6046 17.1133 13.7326C17.0237 13.8607 16.9758 14.0117 16.9758 14.1665Z" fill="#18BFFF"/>
<path d="M13.8726 14.7589L9.92822 16.6079L9.52773 16.7959L1.20146 20.6693C0.673838 20.9165 0 20.5431 0 19.9738V9.2065C0 9.0005 0.108765 8.8227 0.254625 8.689C0.314464 8.6311 0.38235 8.5817 0.456308 8.5421C0.65511 8.4262 0.938908 8.3953 1.18021 8.4879L13.8063 13.3452C14.4481 13.5924 14.4985 14.4653 13.8726 14.7589Z" fill="#F82B60"/>
<path d="M13.8726 14.7589L9.92824 16.6079L0.254639 8.6888C0.314489 8.631 0.382375 8.5816 0.456322 8.5421C0.655124 8.4262 0.938921 8.3953 1.18022 8.4879L13.8063 13.3452C14.4481 13.5924 14.4985 14.4654 13.8726 14.7589Z" fill="white" fill-opacity="0.25"/>
</svg>
