<svg width="124" height="34" viewBox="0 0 124 34" fill="none" xmlns="http://www.w3.org/2000/svg">
<path fill-rule="evenodd" clip-rule="evenodd" d="M57.123 20.8329C56.2657 21.0306 55.8222 20.7668 55.8222 20.1989C55.8222 19.4208 56.6267 19.1094 57.776 19.1094C58.2815 19.1094 58.7584 19.153 58.7584 19.153C58.7584 19.4861 58.0346 20.6227 57.123 20.8329ZM57.9954 13.0428C55.251 13.0428 53.2806 14.052 53.2806 14.052V17.0187C53.2806 17.0187 55.456 15.7681 57.221 15.7681C58.6289 15.7681 58.8021 16.5278 58.7383 17.1581C58.7383 17.1581 58.3318 17.0506 57.0926 17.0506C54.1713 17.0506 52.6973 18.3782 52.6973 20.5067C52.6973 22.5259 54.354 23.3696 55.7503 23.3696C57.787 23.3696 58.6829 22.0005 58.9576 21.3512C59.1488 20.9007 59.184 20.597 59.3549 20.597C59.5512 20.597 59.4852 20.8149 59.4753 21.2632C59.4591 22.0486 59.4966 22.6422 59.6209 23.1426H62.322V18.284C62.322 15.2505 61.2486 13.0428 57.9954 13.0428Z" fill="white"/>
<path fill-rule="evenodd" clip-rule="evenodd" d="M75.7734 18.2112C75.7734 17.3238 76.5984 16.5155 78.1128 16.5155C79.7625 16.5155 81.0902 17.3102 81.3877 17.4907V14.0563C81.3877 14.0563 80.3392 13.0467 77.7621 13.0467C75.0455 13.0467 72.7832 14.6362 72.7832 18.0579C72.7832 21.4791 74.8364 23.3765 77.7547 23.3765C80.0347 23.3765 81.3935 22.1237 81.3935 22.1237V18.862C80.9636 19.1023 79.7658 19.934 78.1293 19.934C76.3967 19.934 75.7734 19.1364 75.7734 18.2112ZM39.6714 13.2716C39.6718 13.2738 39.8438 14.0118 39.6171 14.977C39.5016 15.4678 39.2892 15.8854 39.5456 15.8854C39.7224 15.8854 39.7228 15.7386 39.9528 15.2126C40.2892 14.4436 40.9983 13.0441 42.6554 13.0441C44.2307 13.0441 44.9728 14.0012 45.2186 14.8974C45.4057 15.5783 45.2421 15.8854 45.4703 15.8854C45.6324 15.8854 45.6885 15.5321 45.8881 15.0852C46.2465 14.2847 47.0261 13.0441 48.6028 13.0441C50.9818 13.0441 51.8902 14.7621 51.8902 17.3392V23.1461H48.3559V17.7926C48.3559 16.9001 48.2118 16.0343 47.3981 16.0343C46.6442 16.0343 46.2927 17.3703 46.2927 18.2329V23.1482H42.6936V17.793C42.6936 16.651 42.5325 16.0346 41.7298 16.0346C41.035 16.0346 40.6296 17.264 40.6296 18.2332V23.1465H37.0448V13.2716H39.6714ZM63.4985 13.2851C63.4985 13.2851 64.11 13.6377 65.2942 13.6377C66.4806 13.6377 67.083 13.2851 67.083 13.2851V23.1487H63.4985V13.2851ZM93.0921 13.2851C93.0921 13.2851 93.7036 13.6377 94.8882 13.6377C96.0742 13.6377 96.677 13.2851 96.677 13.2851V23.1487H93.0921V13.2851ZM71.8279 10.2821V23.1487H68.243V10.2821H71.8279ZM85.6479 10.2821C85.6479 10.2821 85.7965 10.653 85.7965 11.7528C85.7965 13.3768 85.4432 14.6986 85.2763 15.2023C85.1879 15.469 85.0302 15.8806 85.2565 15.8879C85.3871 15.892 85.4656 15.6953 85.6256 15.3541C85.7848 15.0125 86.5742 13.0463 88.6492 13.0463C91.5073 13.0463 91.9277 15.3868 91.9277 17.9214V23.1482H88.3428V17.7067C88.3428 16.5907 88.1088 16.0365 87.3608 16.0365C86.4576 16.0365 86.1384 17.435 86.1384 18.2354V23.1482H82.5535V10.2817L85.6479 10.2821ZM100.515 13.2716C100.515 13.2738 100.687 14.0118 100.46 14.977C100.345 15.4678 100.132 15.8854 100.389 15.8854C100.566 15.8854 100.566 15.7386 100.796 15.2126C101.132 14.4436 101.842 13.0441 103.499 13.0441C105.146 13.0441 105.799 14.0056 106.062 14.8974C106.238 15.495 106.085 15.8854 106.313 15.8854C106.476 15.8854 106.532 15.5321 106.731 15.0852C107.089 14.2847 107.869 13.0441 109.446 13.0441C111.825 13.0441 112.733 14.7621 112.733 17.3392V23.1461H109.199V17.7926C109.199 16.9001 109.055 16.0343 108.241 16.0343C107.487 16.0343 107.136 17.3703 107.136 18.2329V23.1482H103.536V17.793C103.536 16.651 103.376 16.0346 102.573 16.0346C101.878 16.0346 101.473 17.264 101.473 18.2332V23.1465H97.888V13.2716H100.515ZM65.2799 10.1823C64.0686 10.1823 63.0858 10.8235 63.0858 11.6145C63.0858 12.4054 64.0682 13.0467 65.2799 13.0467C66.492 13.0467 67.4744 12.4054 67.4744 11.6145C67.4744 10.8235 66.4924 10.1823 65.2799 10.1823ZM94.8739 10.1823C93.6622 10.1823 92.6794 10.8235 92.6794 11.6145C92.6794 12.4054 93.6618 13.0467 94.8739 13.0467C96.0856 13.0467 97.0684 12.4054 97.0684 11.6145C97.0684 10.8235 96.086 10.1823 94.8739 10.1823Z" fill="white"/>
<path fill-rule="evenodd" clip-rule="evenodd" d="M118.84 21.0208C118.018 21.0208 117.414 19.9785 117.414 18.5261C117.414 17.1156 118.034 16.0322 118.812 16.0322C119.808 16.0322 120.234 16.9468 120.234 18.5261C120.234 20.1692 119.842 21.0208 118.84 21.0208ZM119.823 13.0406C117.981 13.0406 117.137 14.4218 116.77 15.2087C116.527 15.7285 116.54 15.8815 116.362 15.8815C116.107 15.8815 116.319 15.4641 116.434 14.9732C116.662 14.0066 116.489 13.268 116.489 13.268H113.864V25.8668H117.447V21.8725C117.871 22.5919 118.656 23.3605 119.867 23.3605C122.459 23.3605 123.763 21.1678 123.763 18.2055C123.763 14.848 122.201 13.0406 119.823 13.0406Z" fill="white"/>
<path fill-rule="evenodd" clip-rule="evenodd" d="M24.3724 16.0217C24.6134 15.9931 24.8441 15.9916 25.0565 16.0217C25.1794 15.7399 25.2003 15.2546 25.0899 14.7259C24.9259 13.9401 24.7036 13.4647 24.2443 13.5388C23.785 13.6129 23.7681 14.1823 23.9325 14.9677C24.0249 15.4098 24.1893 15.7876 24.3724 16.0217Z" fill="white"/>
<path fill-rule="evenodd" clip-rule="evenodd" d="M20.432 16.6435C20.7603 16.7877 20.9624 16.8834 21.0413 16.7998C21.0923 16.7477 21.0769 16.6483 20.9984 16.5203C20.8362 16.2558 20.5028 15.9872 20.1487 15.8364C19.4253 15.525 18.5621 15.6284 17.8963 16.1068C17.6765 16.2679 17.4682 16.4909 17.4979 16.6263C17.5074 16.6699 17.5404 16.7029 17.6175 16.714C17.7987 16.7345 18.4319 16.4146 19.1615 16.3698C19.6762 16.3383 20.1033 16.4993 20.432 16.6435Z" fill="white"/>
<path fill-rule="evenodd" clip-rule="evenodd" d="M19.7725 17.0207C19.3444 17.0882 19.1085 17.2294 18.957 17.3604C18.8279 17.4734 18.7479 17.5985 18.7486 17.6861C18.749 17.728 18.767 17.7522 18.7813 17.7643C18.8007 17.7815 18.8238 17.7911 18.8517 17.7911C18.9482 17.7911 19.165 17.7041 19.165 17.7041C19.7604 17.491 20.1533 17.517 20.5425 17.561C20.7575 17.5853 20.8595 17.5985 20.9064 17.5247C20.9204 17.5035 20.9373 17.4576 20.8943 17.3879C20.7942 17.2254 20.3617 16.9506 19.7725 17.0207Z" fill="white"/>
<path fill-rule="evenodd" clip-rule="evenodd" d="M23.0427 18.4045C23.3332 18.5472 23.6531 18.4911 23.7573 18.2794C23.8615 18.0678 23.7104 17.7802 23.4198 17.6375C23.1293 17.4948 22.8094 17.5509 22.7052 17.7625C22.601 17.9746 22.7521 18.2618 23.0427 18.4045Z" fill="white"/>
<path fill-rule="evenodd" clip-rule="evenodd" d="M24.911 16.7725C24.6751 16.7685 24.4792 17.0275 24.4737 17.3514C24.4682 17.6753 24.6553 17.9406 24.8911 17.9446C25.127 17.9486 25.3229 17.6896 25.3284 17.3657C25.3339 17.0422 25.1468 16.7766 24.911 16.7725Z" fill="white"/>
<path fill-rule="evenodd" clip-rule="evenodd" d="M9.05565 22.6089C8.99695 22.5352 8.90047 22.5576 8.80692 22.5796C8.74162 22.595 8.66788 22.6119 8.58681 22.6108C8.41329 22.6075 8.26618 22.5334 8.18364 22.4064C8.07615 22.2414 8.08239 21.9952 8.20088 21.7135L8.25627 21.5873C8.44557 21.1624 8.76217 20.4518 8.40669 19.7746C8.13888 19.2647 7.70233 18.9474 7.17736 18.8806C6.67331 18.8168 6.15458 19.0035 5.82368 19.3685C5.30165 19.9445 5.21984 20.7285 5.32072 21.0054C5.35777 21.1067 5.41574 21.1349 5.45756 21.1408C5.54634 21.1525 5.67767 21.088 5.75984 20.8668L5.78332 20.7949C5.82001 20.6778 5.88824 20.4599 6.00013 20.2853C6.13513 20.0747 6.34497 19.9298 6.5915 19.8766C6.84243 19.8227 7.09922 19.8708 7.3142 20.0116C7.67995 20.2508 7.82082 20.6991 7.66454 21.1265C7.58384 21.3477 7.4525 21.7707 7.48148 22.1181C7.54018 22.8213 7.9727 23.1038 8.36119 23.1339C8.73905 23.1482 9.00319 22.9358 9.06995 22.781C9.10921 22.6893 9.07619 22.6335 9.05454 22.6097" fill="white"/>
<path fill-rule="evenodd" clip-rule="evenodd" d="M12.6496 9.69226C13.8822 8.26816 15.3991 7.02999 16.7583 6.3348C16.8053 6.31059 16.8551 6.36159 16.8298 6.40781C16.722 6.60334 16.514 7.02191 16.4483 7.33924C16.438 7.38877 16.492 7.42582 16.5338 7.39758C17.3794 6.82125 18.8501 6.20347 20.1403 6.12423C20.1957 6.12093 20.2225 6.19173 20.1785 6.22585C19.9822 6.37626 19.7676 6.58463 19.6109 6.7952C19.5842 6.83116 19.6095 6.88252 19.6542 6.88288C20.56 6.88949 21.837 7.20645 22.6694 7.67345C22.7255 7.705 22.6855 7.81395 22.6224 7.79964C21.363 7.51093 19.3017 7.29192 17.16 7.81432C15.2483 8.28056 13.789 9.00076 12.7248 9.77476C12.6708 9.81406 12.6059 9.74246 12.6496 9.69226ZM23.8701 24.0901C23.9068 24.0747 23.9317 24.0333 23.9277 23.9918C23.9226 23.9408 23.8771 23.9038 23.8261 23.9089C23.8261 23.9089 21.1961 24.2981 18.7114 23.3887C18.9822 22.509 19.7015 22.8267 20.7893 22.9144C22.7497 23.0314 24.507 22.7449 25.8056 22.3722C26.9307 22.0493 28.4088 21.4125 29.5567 20.5064C29.9437 21.3567 30.0805 22.2929 30.0805 22.2929C30.0805 22.2929 30.3803 22.2394 30.6308 22.3934C30.8674 22.5391 31.041 22.8417 30.9225 23.6246C30.6811 25.0869 30.0596 26.274 29.0148 27.3661C28.3787 28.0507 27.6069 28.6457 26.7235 29.0786C26.2543 29.3251 25.755 29.5383 25.2271 29.7103C21.2886 30.9969 17.2568 29.5826 15.9575 26.5458C15.8536 26.3177 15.766 26.0785 15.697 25.8286C15.1434 23.8275 15.6133 21.4264 17.083 19.915C17.1736 19.8189 17.266 19.7048 17.266 19.5621C17.266 19.4428 17.1901 19.317 17.1244 19.2275C16.6101 18.4817 14.829 17.2109 15.1867 14.7515C15.4435 12.9848 16.9887 11.7404 18.4293 11.8142L18.7943 11.8351C19.4187 11.8721 19.9631 11.9521 20.4771 11.9737C21.3373 12.0112 22.1107 11.8861 23.0271 11.1226C23.336 10.8651 23.584 10.6417 24.0033 10.5709C24.0473 10.5632 24.157 10.5239 24.376 10.5342C24.5998 10.5463 24.8125 10.6076 25.0037 10.7349C25.7381 11.2235 25.8423 12.4074 25.8804 13.2731C25.9021 13.7673 25.9619 14.9632 25.9824 15.3066C26.029 16.0916 26.2356 16.2021 26.653 16.3396C26.8878 16.417 27.1057 16.4746 27.4271 16.5649C28.3993 16.8378 28.9756 17.1148 29.3391 17.4706C29.5559 17.693 29.6568 17.9292 29.688 18.1545C29.8025 18.9909 29.0387 20.0239 27.0162 20.9627C24.8056 21.9888 22.1235 22.2485 20.2705 22.042L19.6212 21.9686C18.1391 21.7691 17.2935 23.6844 18.1832 24.997C18.7565 25.843 20.3182 26.3932 21.8807 26.3936C25.463 26.394 28.2166 24.8642 29.2408 23.5432L29.3226 23.4265C29.3732 23.3506 29.3314 23.3087 29.2687 23.3517C28.4319 23.9243 24.715 26.1977 20.739 25.5135C20.739 25.5135 20.2559 25.4339 19.8149 25.2626C19.4646 25.1261 18.7309 24.7886 18.6417 24.0362C21.8502 25.0285 23.8701 24.0901 23.8701 24.0901ZM6.24688 16.4651C5.13091 16.6819 4.14738 17.3144 3.54611 18.1882C3.1866 17.8885 2.51709 17.3081 2.39859 17.0818C1.43854 15.2585 3.44632 11.714 4.84917 9.71206C8.31592 4.76504 13.7453 1.02058 16.2586 1.69999C16.6673 1.81555 18.0206 3.38457 18.0206 3.38457C18.0206 3.38457 15.5081 4.77861 13.1782 6.72183C10.0387 9.13906 7.6677 12.6524 6.24688 16.4651ZM8.12186 24.8312C7.9531 24.8602 7.78069 24.8715 7.6068 24.8671C5.92772 24.822 4.11436 23.3106 3.93424 21.5181C3.73504 19.5368 4.74755 18.0121 6.53999 17.6504C6.75423 17.6071 7.01323 17.5822 7.2924 17.5968C8.29684 17.6519 9.77673 18.423 10.1146 20.6109C10.414 22.5486 9.93851 24.5216 8.12186 24.8312ZM30.8652 21.3226C30.8509 21.2716 30.757 20.9293 30.6283 20.5166C30.4995 20.1036 30.3663 19.8134 30.3663 19.8134C30.8828 19.0404 30.892 18.3489 30.8231 17.9575C30.7497 17.4721 30.5475 17.0587 30.1403 16.6309C29.7331 16.2035 28.9 15.7655 27.7294 15.4368L27.1153 15.2662C27.1123 15.2409 27.083 13.8183 27.0566 13.2075C27.0371 12.7658 26.9993 12.0764 26.7855 11.3978C26.5305 10.4788 26.0866 9.67466 25.5323 9.16026C27.0621 7.57476 28.017 5.82781 28.0144 4.32959C28.01 1.44796 24.471 0.57596 20.1095 2.38197L19.1854 2.77414C19.1814 2.7701 17.5147 1.13504 17.4898 1.11303C12.5171 -3.22427 -3.03009 14.0571 1.9404 18.2542L3.02665 19.1747C2.7449 19.9047 2.63411 20.7411 2.72473 21.6403C2.84065 22.7955 3.43642 23.9027 4.40234 24.7582C5.31911 25.5704 6.52458 26.0847 7.69411 26.0836C9.62852 30.5412 14.0484 33.2758 19.2305 33.4298C24.7894 33.5949 29.4558 30.9866 31.4111 26.3011C31.5391 25.9724 32.0817 24.4907 32.0817 23.1825C32.0817 21.8681 31.3385 21.3226 30.8652 21.3226Z" fill="white"/>
</svg>
