<svg width="102" height="21" viewBox="0 0 102 21" fill="none" xmlns="http://www.w3.org/2000/svg">
<path fill-rule="evenodd" clip-rule="evenodd" d="M98.7538 15.4637C98.8145 16.1561 99.3682 17.0373 100.328 17.0373H100.889C101.107 17.0373 101.285 16.859 101.285 16.6412V4.29537H101.283C101.272 4.08737 101.1 3.92078 100.889 3.92078H99.1501C98.9393 3.92078 98.7674 4.08737 98.7566 4.29537H98.7538V5.29858C97.688 3.98488 96.0078 3.43958 94.3231 3.43958C90.493 3.43958 87.3883 6.54678 87.3883 10.3799C87.3883 14.2133 90.493 17.3205 94.3231 17.3205C96.0078 17.3205 97.8445 16.6666 98.7538 15.4622V15.4637ZM94.3295 14.8915C91.8938 14.8915 89.9192 12.8718 89.9192 10.3799C89.9192 7.88848 91.8938 5.86868 94.3295 5.86868C96.766 5.86868 98.7403 7.88848 98.7403 10.3799C98.7403 12.8718 96.766 14.8915 94.3295 14.8915Z" fill="white"/>
<path fill-rule="evenodd" clip-rule="evenodd" d="M85.1886 9.49986C85.1886 5.89876 82.9187 3.46936 79.2987 3.46936C77.5707 3.46936 76.1541 4.46936 75.6538 5.32836C75.5457 4.65666 75.1894 3.95066 74.0844 3.95066H73.5211C73.3033 3.95066 73.1254 4.12916 73.1254 4.34696V15.4946V15.4963V16.6938H73.1276C73.139 16.9014 73.311 17.0682 73.5213 17.0682H75.2608C75.2874 17.0682 75.3135 17.065 75.3388 17.0601C75.3502 17.0579 75.3609 17.0534 75.3721 17.0502C75.3851 17.0462 75.3986 17.0431 75.4109 17.0381C75.4263 17.0316 75.4404 17.0231 75.4547 17.015C75.4618 17.0107 75.4692 17.0077 75.476 17.0031C75.4934 16.9919 75.5093 16.9784 75.5247 16.9647C75.5272 16.9622 75.5302 16.9604 75.5327 16.9581C75.55 16.9413 75.5659 16.9229 75.5798 16.9037C75.6233 16.8439 75.6499 16.7715 75.6543 16.6938H75.6565V9.40076C75.6565 7.46676 77.2233 5.89876 79.156 5.89876C81.0887 5.89876 82.6556 7.46676 82.6556 9.40076L82.6571 15.4968L82.6575 15.4946C82.6575 15.5 82.6584 15.5055 82.6584 15.5113V16.6938H82.6607C82.6722 16.9014 82.844 17.0682 83.0543 17.0682H84.7938C84.8206 17.0682 84.8466 17.065 84.8717 17.0601C84.8821 17.0582 84.8915 17.0541 84.9017 17.0513C84.9159 17.0471 84.9305 17.0436 84.9442 17.0381C84.9584 17.0322 84.9714 17.024 84.9848 17.0164C84.9931 17.0117 85.0017 17.0084 85.0095 17.0031C85.0256 16.9926 85.0403 16.9798 85.0548 16.9672C85.0584 16.9638 85.0626 16.9613 85.066 16.9578C85.0826 16.9419 85.0972 16.9247 85.1106 16.9067L85.1137 16.9029C85.1566 16.8436 85.1828 16.7721 85.1873 16.6948L85.1875 16.6938H85.1899L85.1886 9.49986Z" fill="white"/>
<path fill-rule="evenodd" clip-rule="evenodd" d="M67.0736 15.4637C67.1344 16.156 67.6882 17.0373 68.6477 17.0373H69.209C69.4266 17.0373 69.6048 16.8589 69.6048 16.6412V4.29537H69.6025C69.5912 4.08737 69.4191 3.92078 69.209 3.92078H67.4696C67.2592 3.92078 67.0874 4.08737 67.0756 4.29537H67.0736V5.29858C66.0078 3.98488 64.3275 3.43958 62.6425 3.43958C58.8126 3.43958 55.7079 6.54677 55.7079 10.38C55.7079 14.2133 58.8126 17.3206 62.6425 17.3206C64.3275 17.3206 66.1639 16.6667 67.0734 15.4621L67.0736 15.4637ZM62.6493 14.8915C60.2137 14.8915 58.2389 12.8718 58.2389 10.38C58.2389 7.88847 60.2137 5.86868 62.6493 5.86868C65.0853 5.86868 67.0597 7.88847 67.0597 10.38C67.0597 12.8718 65.0853 14.8915 62.6493 14.8915Z" fill="white"/>
<path fill-rule="evenodd" clip-rule="evenodd" d="M45.4216 13.6955C46.5828 14.5006 47.8503 14.8916 49.0683 14.8916C50.2287 14.8916 51.4283 14.2896 51.4283 13.2417C51.4283 11.8427 48.8143 11.625 47.172 11.0664C45.5292 10.5078 44.1144 9.35295 44.1144 7.48285C44.1144 4.62125 46.6622 3.43945 49.0401 3.43945C50.5468 3.43945 52.1013 3.93665 53.1091 4.64885C53.4562 4.91205 53.2449 5.21425 53.2449 5.21425L52.2828 6.58935C52.1747 6.74425 51.9856 6.87805 51.7142 6.71045C51.4428 6.54285 50.4909 5.86855 49.0401 5.86855C47.5892 5.86855 46.7153 6.53905 46.7153 7.37015C46.7153 8.36685 47.8512 8.68025 49.1816 9.01995C51.5001 9.64535 54.0292 10.3972 54.0292 13.2417C54.0292 15.763 51.6727 17.3211 49.0683 17.3211C47.0947 17.3211 45.4143 16.758 44.005 15.7231C43.7114 15.429 43.9165 15.1559 43.9165 15.1559L44.8738 13.7878C45.0686 13.532 45.3142 13.6212 45.4216 13.6955Z" fill="white"/>
<path fill-rule="evenodd" clip-rule="evenodd" d="M38.7344 15.4637C38.7952 16.156 39.3491 17.0373 40.3084 17.0373H40.8698C41.0874 17.0373 41.2658 16.8589 41.2658 16.6412V4.29537H41.2633C41.2519 4.08737 41.0801 3.92078 40.8698 3.92078H39.1304C38.92 3.92078 38.7482 4.08737 38.7365 4.29537H38.7344V5.29858C37.6687 3.98488 35.9884 3.43958 34.3035 3.43958C30.4735 3.43958 27.3687 6.54677 27.3687 10.38C27.3687 14.2133 30.4735 17.3206 34.3035 17.3206C35.9884 17.3206 37.8247 16.6667 38.7342 15.4621L38.7344 15.4637ZM34.3102 14.8915C31.8744 14.8915 29.8997 12.8718 29.8997 10.38C29.8997 7.88847 31.8744 5.86868 34.3102 5.86868C36.746 5.86868 38.7205 7.88847 38.7205 10.38C38.7205 12.8718 36.746 14.8915 34.3102 14.8915Z" fill="white"/>
<path fill-rule="evenodd" clip-rule="evenodd" d="M17.6462 10.852C15.0688 10.852 12.9793 12.9414 12.9793 15.5191C12.9793 18.0965 15.0688 20.1859 17.6462 20.1859C20.2236 20.1859 22.313 18.0965 22.313 15.5191C22.313 12.9414 20.2236 10.852 17.6462 10.852ZM5.52134 10.8525C2.94393 10.8525 0.854492 12.9414 0.854492 15.5191C0.854492 18.0965 2.94393 20.1859 5.52134 20.1859C8.09886 20.1859 10.1884 18.0965 10.1884 15.5191C10.1884 12.9414 8.09886 10.8525 5.52134 10.8525ZM16.2505 5.01826C16.2505 7.59586 14.1612 9.68556 11.5838 9.68556C9.00627 9.68556 6.91693 7.59586 6.91693 5.01826C6.91693 2.44116 9.00627 0.351562 11.5838 0.351562C14.1612 0.351562 16.2505 2.44116 16.2505 5.01826Z" fill="#F06A6A"/>
</svg>
