<svg width="97" height="32" viewBox="0 0 97 32" fill="none" xmlns="http://www.w3.org/2000/svg">
<path d="M0.616211 0.425171H21.3913V10.8127H11.0038L0.616211 0.425171ZM0.616211 10.8127H11.0038L21.3913 21.2003H0.616211V10.8127ZM0.616211 21.2003H11.0038V31.5878L0.616211 21.2003Z" fill="white"/>
<path d="M33.1133 8.61987H41.511V11.2884H36.2918V14.9967H41.511V17.6063H36.2918V22.3546H33.1133V8.61987ZM43.2376 12.8971H46.2397V14.8789C46.3966 14.1978 46.7173 13.6751 47.2011 13.3091C47.6973 12.9294 48.2481 12.7403 48.8493 12.7403C49.1635 12.7403 49.4253 12.7669 49.634 12.8187V15.6051C49.3345 15.5689 49.0332 15.5495 48.7315 15.5461C47.9074 15.5461 47.2867 15.8137 46.8675 16.3503C46.4498 16.8735 46.2397 17.6581 46.2397 18.7051V22.3546H43.239V12.8971H43.2376ZM54.3731 22.6098C53.4578 22.6098 52.6594 22.3935 51.9793 21.962C51.3121 21.5305 50.7817 20.9179 50.449 20.196C50.0959 19.438 49.9182 18.5801 49.9182 17.6258C49.9182 16.6839 50.1026 15.8332 50.4685 15.0752C50.8116 14.3428 51.3563 13.7235 52.0382 13.2896C52.7307 12.8581 53.5225 12.6419 54.4126 12.6419C55.0794 12.6419 55.6753 12.7864 56.1981 13.0739C56.7209 13.3624 57.1134 13.7549 57.3753 14.2511V12.8971H60.3575V22.3546H57.3753V21.0201C57.1134 21.491 56.7081 21.8765 56.1587 22.1778C55.6093 22.4691 54.9953 22.6174 54.3731 22.6098ZM55.2367 20.1176C55.9557 20.1176 56.5118 19.8823 56.9043 19.4113C57.2969 18.9404 57.4932 18.3449 57.4932 17.6258C57.4932 16.9196 57.2969 16.3308 56.9043 15.8598C56.5118 15.3888 55.9557 15.1536 55.2367 15.1536C54.5556 15.1536 54.0072 15.3822 53.5885 15.8403C53.1831 16.2985 52.9802 16.893 52.9802 17.6258C52.9802 18.3587 53.1831 18.9599 53.5885 19.4308C54.0072 19.889 54.5566 20.1176 55.2367 20.1176ZM62.4572 12.8971H65.4593V14.2706C65.6694 13.7858 66.0087 13.3932 66.4792 13.0934C66.964 12.7935 67.5262 12.6419 68.1668 12.6419C69.6581 12.6419 70.6462 13.2236 71.1295 14.3884C71.3957 13.8604 71.812 13.4237 72.3267 13.1328C72.877 12.8016 73.5091 12.6319 74.1512 12.6419C76.3882 12.6419 77.5064 13.9231 77.5064 16.4876V22.3546H74.4848V17.037C74.4848 16.3968 74.3669 15.9259 74.1317 15.6245C73.896 15.3242 73.5428 15.1731 73.0719 15.1731C72.5619 15.1731 72.1694 15.3498 71.8947 15.703C71.62 16.0432 71.4826 16.6378 71.4826 17.4885V22.3546H68.461V17.0175C68.461 16.3769 68.3436 15.9121 68.1079 15.6245C67.8864 15.3242 67.539 15.1731 67.069 15.1731C66.5453 15.1731 66.146 15.3498 65.8714 15.703C65.5967 16.0432 65.4593 16.6378 65.4593 17.4885V22.3546H62.4581L62.4572 12.8971ZM88.7841 17.1354C88.7841 17.5403 88.7575 17.9789 88.7043 18.4499H81.7205C81.7471 19.0649 81.9557 19.5349 82.3483 19.8628C82.7408 20.1893 83.2717 20.3533 83.9375 20.3533C84.8666 20.3533 85.4555 20.0715 85.7035 19.5092H88.6468C88.5023 20.4384 87.9924 21.1897 87.116 21.7657C86.2529 22.328 85.1931 22.6098 83.9375 22.6098C82.316 22.6098 81.0404 22.1711 80.1113 21.2948C79.1959 20.4179 78.7378 19.1956 78.7378 17.6258C78.7378 16.6055 78.9469 15.7224 79.3656 14.9768C79.77 14.2321 80.3936 13.6294 81.1511 13.2502C81.9234 12.8453 82.8193 12.6419 83.8406 12.6419C84.8077 12.6419 85.6641 12.8315 86.4098 13.2112C87.1683 13.5909 87.7509 14.1204 88.1558 14.8005C88.575 15.4815 88.7841 16.2595 88.7841 17.1354ZM85.82 16.586C85.8072 15.9582 85.6308 15.4801 85.2901 15.1536C84.9508 14.8271 84.4593 14.6631 83.8187 14.6631C83.1781 14.6631 82.6681 14.8394 82.2884 15.193C81.9225 15.5333 81.7328 15.9971 81.719 16.586H85.82ZM90.1077 12.8971H93.1098V14.8789C93.2667 14.1978 93.5875 13.6751 94.0713 13.3091C94.5408 12.9394 95.1216 12.7388 95.7194 12.7403C96.0331 12.7403 96.2954 12.7669 96.5041 12.8187V15.6051C96.2047 15.5689 95.9034 15.5495 95.6016 15.5461C94.7775 15.5461 94.1568 15.8137 93.7377 16.3503C93.3185 16.8735 93.1098 17.6581 93.1098 18.7051V22.3546H90.1077V12.8971Z" fill="white"/>
</svg>
